<?xml version="1.0" encoding="UTF-8" standalone="no"?>
<svg
   xmlns:dc="http://purl.org/dc/elements/1.1/"
   xmlns:cc="http://creativecommons.org/ns#"
   xmlns:rdf="http://www.w3.org/1999/02/22-rdf-syntax-ns#"
   xmlns:svg="http://www.w3.org/2000/svg"
   xmlns="http://www.w3.org/2000/svg"
   viewBox="0 0 656.62665 204.92"
   height="204.92"
   width="656.62665"
   xml:space="preserve"
   id="svg2"
   version="1.1"><metadata
     id="metadata8"><rdf:RDF><cc:Work
         rdf:about=""><dc:format>image/svg+xml</dc:format><dc:type
           rdf:resource="http://purl.org/dc/dcmitype/StillImage" /></cc:Work></rdf:RDF></metadata><defs
     id="defs6" /><g
     transform="matrix(1.3333333,0,0,-1.3333333,0,204.92)"
     id="g10"><g
       transform="scale(0.1)"
       id="g12"><path
         id="path14"
         style="fill:#f04059;fill-opacity:1;fill-rule:nonzero;stroke:none"
         d="m 1327.8,292.301 c -10.77,-80 -64.61,-149.231 -140,-179.992 -36.92,-15.3871 -76.92,-20.0004 -116.92,-15.3871 -38.46,4.6171 -76.919,16.9181 -116.919,40.0001 -55.383,30.769 -110.77,78.457 -175.383,149.226 101.535,124.614 163.074,238.461 186.152,339.997 10.77,47.691 12.305,90.765 7.692,130.765 -6.152,38.461 -20,73.848 -41.539,104.613 -47.692,69.231 -127.692,109.231 -216.918,109.231 -89.231,0 -169.231,-41.535 -216.922,-109.231 -21.535,-30.765 -35.383,-66.152 -41.535,-104.613 -6.156,-40 -4.617,-84.613 7.691,-130.765 C 486.273,524.609 549.352,409.219 649.348,284.609 586.273,213.84 529.352,166.148 473.969,135.379 433.969,112.309 395.508,100 357.047,95.3789 c -41.539,-4.6094 -81.539,1.543 -116.922,15.3911 -75.383,30.769 -129.23,100 -139.996,179.992 -4.6173,38.468 -1.5392,76.929 13.844,120 4.617,15.386 12.308,30.769 20,49.226 10.769,24.621 23.078,50.774 35.382,76.926 l 1.54,3.078 c 106.152,229.227 219.996,463.068 338.457,690.758 l 4.617,9.23 c 12.304,23.08 24.613,47.69 36.922,70.77 12.304,24.61 26.152,47.69 43.074,67.69 32.308,36.92 75.383,56.92 123.078,56.92 47.687,0 90.766,-20 123.074,-56.92 16.922,-20 30.77,-43.08 43.074,-67.69 12.309,-23.08 24.618,-47.69 36.922,-70.77 l 4.617,-9.23 c 116.92,-229.23 230.77,-463.07 336.92,-692.297 v -1.539 c 12.31,-24.613 23.07,-52.305 35.38,-76.926 7.69,-18.457 15.39,-33.84 20,-49.226 12.31,-40 16.92,-78.461 10.77,-118.461 z m -613.835,72.308 c -83.078,104.61 -136.922,203.075 -155.383,286.149 -7.691,35.387 -9.23,66.152 -4.617,93.847 3.078,24.614 12.308,46.153 24.617,64.614 29.231,41.539 78.461,67.691 135.383,67.691 56.922,0 107.691,-24.613 135.383,-67.691 12.304,-18.461 21.539,-40 24.613,-64.614 4.617,-27.695 3.078,-60 -4.613,-93.847 C 850.887,569.223 797.039,470.762 713.965,364.609 Z m 693.835,80 c -7.69,18.461 -15.38,38.461 -23.08,55.379 -12.3,27.692 -24.61,53.852 -35.38,78.465 l -1.54,1.539 c -106.15,230.766 -220,464.608 -339.99,695.368 l -4.62,9.24 c -12.307,23.07 -24.616,47.69 -36.92,72.3 -15.387,27.69 -30.77,56.92 -55.387,84.62 -49.231,61.53 -119.996,95.38 -195.379,95.38 -76.926,0 -146.152,-33.85 -196.922,-92.31 -23.074,-27.69 -40,-56.92 -55.383,-84.61 -12.308,-24.62 -24.617,-49.23 -36.922,-72.31 l -4.617,-9.23 C 303.199,1047.68 187.816,813.836 81.6641,583.066 l -1.5352,-3.074 C 69.3594,555.375 57.0508,529.219 44.7422,501.531 37.0508,484.609 29.3594,466.148 21.668,446.148 1.66797,389.219 -4.48828,335.379 3.20703,280 20.1289,164.609 97.0508,67.6914 203.203,24.6094 243.203,7.69141 284.738,0 327.816,0 c 12.305,0 27.692,1.53906 40,3.07813 C 418.586,9.23047 470.891,26.1484 521.66,55.3789 584.734,90.7695 644.734,141.539 712.426,215.379 780.117,141.539 841.652,90.7695 903.191,55.3789 953.961,26.1484 1006.27,9.23047 1057.04,3.07813 1069.34,1.53906 1084.73,0 1097.04,0 c 43.07,0 86.15,7.69141 124.61,24.6094 107.69,43.082 183.07,141.5386 200,255.3906 12.3,53.84 6.15,107.691 -13.85,164.609 z m 1533.82,541.532 c 44.62,0 67.69,-7.696 67.69,-7.696 V 841.527 c 0,0 -123.07,41.536 -199.99,-46.156 V 390.762 h -147.69 v 579.992 c 0,0 113.84,0 124.61,0 12.31,0 21.54,-10.77 21.54,-21.539 v -24.613 c 27.69,32.308 87.69,61.539 133.84,61.539 z m 400,-469.231 c -56.92,0 -101.54,29.235 -124.62,63.082 v 206.149 c 23.08,30.769 72.31,63.078 124.62,63.078 98.46,0 173.84,-61.539 173.84,-166.153 0,-104.613 -75.38,-166.156 -173.84,-166.156 z m 24.61,469.231 C 3264.7,986.141 3217,924.602 3217,924.602 V 1249.21 H 3069.31 V 392.301 c 0,0 113.85,0 124.62,0 12.31,0 21.54,10.769 21.54,21.539 v 26.148 0 c 0,0 47.69,-63.066 149.22,-63.066 167.69,0 298.46,129.226 298.46,304.605 1.54,175.383 -129.23,304.614 -296.92,304.614 z m 887.68,-250.77 V 390.762 h -147.69 v 327.687 c 0,95.387 -30.77,133.848 -113.84,133.848 -44.62,0 -90.77,-23.078 -120,-56.926 v -403.07 h -147.69 v 578.453 h 116.92 c 12.31,0 21.54,-10.77 21.54,-21.539 v -24.613 c 43.07,44.613 100,61.539 156.92,61.539 64.61,0 118.46,-18.461 161.53,-55.387 52.31,-43.074 72.31,-98.457 72.31,-195.383 z M 4603.14,516.91 c -56.93,0 -101.54,29.235 -124.62,63.082 v 206.149 c 23.08,30.769 72.31,63.078 124.62,63.078 98.46,0 173.84,-61.539 173.84,-166.153 0,-104.613 -75.38,-166.156 -173.84,-166.156 z m 24.61,469.231 c -101.54,0 -149.23,-61.539 -149.23,-61.539 V 1249.21 H 4330.83 V 392.301 c 0,0 113.85,0 124.62,0 12.3,0 21.53,10.769 21.53,21.539 v 26.148 0 c 0,0 47.7,-63.066 149.23,-63.066 167.69,0 298.46,129.226 298.46,304.605 0,175.383 -130.77,304.614 -296.92,304.614 z M 2421.63,970.754 h 147.69 V 392.301 H 2421.63 Z M 2183.17,578.453 c -23.07,-33.848 -69.23,-63.074 -124.61,-63.074 -98.46,0 -173.84,61.535 -173.84,166.148 0,104.614 75.38,166.153 173.84,166.153 53.84,0 103.07,-30.77 124.61,-63.078 z m 0,370.762 c 0,-9.231 0,-24.613 0,-24.613 0,0 -47.69,61.539 -149.23,61.539 -167.69,0 -298.45,-127.692 -298.45,-304.614 0,-175.379 129.23,-304.605 298.45,-304.605 103.08,0 149.23,63.066 149.23,63.066 V 413.84 c 0,-12.309 9.23,-21.539 21.54,-21.539 h 124.61 v 578.453 c 0,0 -113.84,0 -124.61,0 -12.31,0 -21.54,-10.77 -21.54,-21.539 z m 412.3,201.535 c 0,-55.38 -44.61,-100 -99.99,-100 -55.39,0 -100,44.62 -100,100 0,55.39 43.07,100 100,100 56.92,-1.54 99.99,-46.15 99.99,-100" /></g></g></svg>