<?xml version="1.0" encoding="UTF-8" standalone="no"?>
<svg
   xmlns:dc="http://purl.org/dc/elements/1.1/"
   xmlns:cc="http://creativecommons.org/ns#"
   xmlns:rdf="http://www.w3.org/1999/02/22-rdf-syntax-ns#"
   xmlns:svg="http://www.w3.org/2000/svg"
   xmlns="http://www.w3.org/2000/svg"
   viewBox="0 0 821.33331 190.66667"
   height="190.66667"
   width="821.33331"
   xml:space="preserve"
   id="svg2"
   version="1.1"><metadata
     id="metadata8"><rdf:RDF><cc:Work
         rdf:about=""><dc:format>image/svg+xml</dc:format><dc:type
           rdf:resource="http://purl.org/dc/dcmitype/StillImage" /></cc:Work></rdf:RDF></metadata><defs
     id="defs6" /><g
     transform="matrix(1.3333333,0,0,-1.3333333,0,190.66667)"
     id="g10"><g
       transform="scale(0.1)"
       id="g12"><path
         id="path14"
         style="fill:#fdfeff;fill-opacity:1;fill-rule:nonzero;stroke:none"
         d="M 0,1430 H 243 C 159,1398 71,1354 33,1267 4,1174 11,1076 8,980 11,821 5,661 12,501 38,246 255,37 505,0 H 0 v 1430" /><path
         id="path16"
         style="fill:none;stroke:#fdfeff;stroke-width:0.9375;stroke-linecap:butt;stroke-linejoin:miter;stroke-miterlimit:10;stroke-dasharray:none;stroke-opacity:1"
         d="M 0,1430 H 243 C 159,1398 71,1354 33,1267 4,1174 11,1076 8,980 11,821 5,661 12,501 38,246 255,37 505,0 H 0 Z" /><path
         id="path18"
         style="fill:#38cdff;fill-opacity:1;fill-rule:nonzero;stroke:none"
         d="m 243,1430 h 103 c 72,-17 139,-60 184,-120 34,-50 46,-110 58,-168 97,0 195,2 292,-4 73,5 131,-45 198,-64 80,0 168,30 242,-13 66,-30 109,-92 144,-153 51,81 116,174 222,176 131,29 258,-60 308,-178 35,53 68,113 126,144 63,40 140,35 211,36 5,58 3,120 29,174 36,85 117,143 203,170 h 111 c 47,-17 89,-47 138,-57 50,12 94,42 143,57 h 91 c 80,-19 150,-70 199,-135 49,-82 38,-184 52,-274 53,-1 106,-1 160,-1 16,112 7,243 96,328 46,39 102,66 161,82 h 92 c 75,-18 143,-63 191,-123 56,-82 39,-186 49,-280 116,1 234,-20 333,-85 52,34 104,71 162,97 131,49 276,49 413,26 118,-23 220,-92 307,-172 55,48 109,97 173,133 155,75 334,59 501,48 124,-19 218,-141 213,-264 12,-122 -79,-243 -197,-271 -86,-11 -173,-10 -259,-13 C 5678,385 5728,220 5631,99 5588,49 5527,21 5467,0 H 5364 C 5299,21 5243,61 5184,95 5098,46 5004,16 4906,0 H 4704 C 4601,18 4507,68 4417,119 4361,69 4298,24 4227,0 H 3964 C 3855,14 3759,70 3666,127 3605,78 3542,27 3467,0 H 3204 C 3084,16 2976,78 2884,154 2828,87 2762,26 2677,0 H 2574 C 2491,20 2425,77 2368,138 2280,73 2183,21 2075,0 H 1924 C 1858,15 1796,48 1730,59 1662,47 1600,17 1534,0 H 1384 C 1284,17 1193,66 1112,125 1053,75 994,17 916,0 H 505 C 255,37 38,246 12,501 5,661 11,821 8,980 c 3,96 -4,194 25,287 38,87 126,131 210,163" /><path
         id="path20"
         style="fill:none;stroke:#38cdff;stroke-width:0.9375;stroke-linecap:butt;stroke-linejoin:miter;stroke-miterlimit:10;stroke-dasharray:none;stroke-opacity:1"
         d="m 243,1430 h 103 c 72,-17 139,-60 184,-120 34,-50 46,-110 58,-168 97,0 195,2 292,-4 73,5 131,-45 198,-64 80,0 168,30 242,-13 66,-30 109,-92 144,-153 51,81 116,174 222,176 131,29 258,-60 308,-178 35,53 68,113 126,144 63,40 140,35 211,36 5,58 3,120 29,174 36,85 117,143 203,170 h 111 c 47,-17 89,-47 138,-57 50,12 94,42 143,57 h 91 c 80,-19 150,-70 199,-135 49,-82 38,-184 52,-274 53,-1 106,-1 160,-1 16,112 7,243 96,328 46,39 102,66 161,82 h 92 c 75,-18 143,-63 191,-123 56,-82 39,-186 49,-280 116,1 234,-20 333,-85 52,34 104,71 162,97 131,49 276,49 413,26 118,-23 220,-92 307,-172 55,48 109,97 173,133 155,75 334,59 501,48 124,-19 218,-141 213,-264 12,-122 -79,-243 -197,-271 -86,-11 -173,-10 -259,-13 C 5678,385 5728,220 5631,99 5588,49 5527,21 5467,0 H 5364 C 5299,21 5243,61 5184,95 5098,46 5004,16 4906,0 H 4704 C 4601,18 4507,68 4417,119 4361,69 4298,24 4227,0 H 3964 C 3855,14 3759,70 3666,127 3605,78 3542,27 3467,0 H 3204 C 3084,16 2976,78 2884,154 2828,87 2762,26 2677,0 H 2574 C 2491,20 2425,77 2368,138 2280,73 2183,21 2075,0 H 1924 C 1858,15 1796,48 1730,59 1662,47 1600,17 1534,0 H 1384 C 1284,17 1193,66 1112,125 1053,75 994,17 916,0 H 505 C 255,37 38,246 12,501 5,661 11,821 8,980 c 3,96 -4,194 25,287 38,87 126,131 210,163 z" /><path
         id="path22"
         style="fill:#fdfeff;fill-opacity:1;fill-rule:nonzero;stroke:none"
         d="m 346,1430 h 2217 c -86,-27 -167,-85 -203,-170 -26,-54 -24,-116 -29,-174 -71,-1 -148,4 -211,-36 -58,-31 -91,-91 -126,-144 -50,118 -177,207 -308,178 -106,-2 -171,-95 -222,-176 -35,61 -78,123 -144,153 -74,43 -162,13 -242,13 -67,19 -125,69 -198,64 -97,6 -195,4 -292,4 -12,58 -24,118 -58,168 -45,60 -112,103 -184,120" /><path
         id="path24"
         style="fill:none;stroke:#fdfeff;stroke-width:0.9375;stroke-linecap:butt;stroke-linejoin:miter;stroke-miterlimit:10;stroke-dasharray:none;stroke-opacity:1"
         d="m 346,1430 h 2217 c -86,-27 -167,-85 -203,-170 -26,-54 -24,-116 -29,-174 -71,-1 -148,4 -211,-36 -58,-31 -91,-91 -126,-144 -50,118 -177,207 -308,178 -106,-2 -171,-95 -222,-176 -35,61 -78,123 -144,153 -74,43 -162,13 -242,13 -67,19 -125,69 -198,64 -97,6 -195,4 -292,4 -12,58 -24,118 -58,168 -45,60 -112,103 -184,120 z" /><path
         id="path26"
         style="fill:#fdfeff;fill-opacity:1;fill-rule:nonzero;stroke:none"
         d="m 2674,1430 h 281 c -49,-15 -93,-45 -143,-57 -49,10 -91,40 -138,57" /><path
         id="path28"
         style="fill:none;stroke:#fdfeff;stroke-width:0.9375;stroke-linecap:butt;stroke-linejoin:miter;stroke-miterlimit:10;stroke-dasharray:none;stroke-opacity:1"
         d="m 2674,1430 h 281 c -49,-15 -93,-45 -143,-57 -49,10 -91,40 -138,57 z" /><path
         id="path30"
         style="fill:#fdfeff;fill-opacity:1;fill-rule:nonzero;stroke:none"
         d="m 3046,1430 h 668 c -59,-16 -115,-43 -161,-82 -89,-85 -80,-216 -96,-328 -54,0 -107,0 -160,1 -14,90 -3,192 -52,274 -49,65 -119,116 -199,135" /><path
         id="path32"
         style="fill:none;stroke:#fdfeff;stroke-width:0.9375;stroke-linecap:butt;stroke-linejoin:miter;stroke-miterlimit:10;stroke-dasharray:none;stroke-opacity:1"
         d="m 3046,1430 h 668 c -59,-16 -115,-43 -161,-82 -89,-85 -80,-216 -96,-328 -54,0 -107,0 -160,1 -14,90 -3,192 -52,274 -49,65 -119,116 -199,135 z" /><path
         id="path34"
         style="fill:#fdfeff;fill-opacity:1;fill-rule:nonzero;stroke:none"
         d="M 3806,1430 H 6160 V 0 h -693 c 60,21 121,49 164,99 97,121 47,286 61,427 86,3 173,2 259,13 118,28 209,149 197,271 5,123 -89,245 -213,264 -167,11 -346,27 -501,-48 -64,-36 -118,-85 -173,-133 -87,80 -189,149 -307,172 -137,23 -282,23 -413,-26 -58,-26 -110,-63 -162,-97 -99,65 -217,86 -333,85 -10,94 7,198 -49,280 -48,60 -116,105 -191,123" /><path
         id="path36"
         style="fill:none;stroke:#fdfeff;stroke-width:0.9375;stroke-linecap:butt;stroke-linejoin:miter;stroke-miterlimit:10;stroke-dasharray:none;stroke-opacity:1"
         d="M 3806,1430 H 6160 V 0 h -693 c 60,21 121,49 164,99 97,121 47,286 61,427 86,3 173,2 259,13 118,28 209,149 197,271 5,123 -89,245 -213,264 -167,11 -346,27 -501,-48 -64,-36 -118,-85 -173,-133 -87,80 -189,149 -307,172 -137,23 -282,23 -413,-26 -58,-26 -110,-63 -162,-97 -99,65 -217,86 -333,85 -10,94 7,198 -49,280 -48,60 -116,105 -191,123 z" /><path
         id="path38"
         style="fill:#fdfeff;fill-opacity:1;fill-rule:nonzero;stroke:none"
         d="m 21,1160 c 2,181 215,310 379,240 107,-45 170,-156 175,-269 98,-1 197,2 295,-2 77,10 134,-49 201,-72 73,2 148,36 219,3 87,-30 138,-110 174,-189 32,71 76,141 146,179 79,37 176,38 251,-9 70,-34 101,-107 136,-171 31,65 65,136 133,170 67,45 151,39 227,23 -1,62 -19,130 13,187 46,102 155,180 270,170 62,-9 118,-37 171,-70 67,36 138,79 217,67 83,-6 153,-63 203,-126 56,-81 32,-188 42,-280 68,-2 136,-2 204,-5 3,102 -7,220 63,304 93,131 307,147 414,24 92,-79 74,-212 79,-320 122,7 248,-12 343,-92 158,139 383,178 584,128 119,-22 219,-98 304,-181 57,59 116,121 193,154 143,62 302,50 453,45 137,-15 241,-152 229,-287 -10,-68 -39,-141 -99,-181 -97,-89 -241,-52 -359,-62 -13,-142 37,-307 -60,-429 -73,-86 -204,-127 -309,-77 -42,24 -80,54 -117,84 C 5040,21 4849,-11 4671,22 4576,39 4491,92 4413,146 4361,87 4298,25 4216,15 4074,6 3918,-3 3790,70 3742,94 3700,126 3658,158 3609,93 3547,30 3464,16 3358,4 3251,5 3146,25 3044,49 2955,110 2881,181 2822,83 2721,-2 2601,11 2501,15 2429,88 2371,161 2270,75 2145,12 2010,12 1910,-5 1822,52 1730,75 1645,59 1568,9 1480,12 1341,-2 1211,64 1105,148 1056,96 1007,29 930,20 818,2 703,9 590,9 314,1 51,229 26,504 14,723 19,942 21,1160" /><path
         id="path40"
         style="fill:none;stroke:#fdfeff;stroke-width:0.9375;stroke-linecap:butt;stroke-linejoin:miter;stroke-miterlimit:10;stroke-dasharray:none;stroke-opacity:1"
         d="m 21,1160 c 2,181 215,310 379,240 107,-45 170,-156 175,-269 98,-1 197,2 295,-2 77,10 134,-49 201,-72 73,2 148,36 219,3 87,-30 138,-110 174,-189 32,71 76,141 146,179 79,37 176,38 251,-9 70,-34 101,-107 136,-171 31,65 65,136 133,170 67,45 151,39 227,23 -1,62 -19,130 13,187 46,102 155,180 270,170 62,-9 118,-37 171,-70 67,36 138,79 217,67 83,-6 153,-63 203,-126 56,-81 32,-188 42,-280 68,-2 136,-2 204,-5 3,102 -7,220 63,304 93,131 307,147 414,24 92,-79 74,-212 79,-320 122,7 248,-12 343,-92 158,139 383,178 584,128 119,-22 219,-98 304,-181 57,59 116,121 193,154 143,62 302,50 453,45 137,-15 241,-152 229,-287 -10,-68 -39,-141 -99,-181 -97,-89 -241,-52 -359,-62 -13,-142 37,-307 -60,-429 -73,-86 -204,-127 -309,-77 -42,24 -80,54 -117,84 C 5040,21 4849,-11 4671,22 4576,39 4491,92 4413,146 4361,87 4298,25 4216,15 4074,6 3918,-3 3790,70 3742,94 3700,126 3658,158 3609,93 3547,30 3464,16 3358,4 3251,5 3146,25 3044,49 2955,110 2881,181 2822,83 2721,-2 2601,11 2501,15 2429,88 2371,161 2270,75 2145,12 2010,12 1910,-5 1822,52 1730,75 1645,59 1568,9 1480,12 1341,-2 1211,64 1105,148 1056,96 1007,29 930,20 818,2 703,9 590,9 314,1 51,229 26,504 14,723 19,942 21,1160 Z" /><path
         id="path42"
         style="fill:#38cdff;fill-opacity:1;fill-rule:nonzero;stroke:none"
         d="m 267,1284 c 72,21 158,-31 169,-106 5,-59 5,-119 6,-178 149,-1 299,5 448,-2 56,-9 108,-54 115,-112 22,-73 -35,-159 -109,-171 -152,-12 -305,-3 -458,-5 2,-56 -1,-112 6,-167 10,-53 55,-102 110,-108 115,-10 230,0 344,-9 99,-15 148,-151 81,-225 -36,-64 -116,-62 -179,-62 -116,2 -236,-14 -349,21 -171,52 -300,221 -299,400 -6,183 -2,367 -2,550 -12,76 38,162 117,174" /><path
         id="path44"
         style="fill:none;stroke:#38cdff;stroke-width:0.9375;stroke-linecap:butt;stroke-linejoin:miter;stroke-miterlimit:10;stroke-dasharray:none;stroke-opacity:1"
         d="m 267,1284 c 72,21 158,-31 169,-106 5,-59 5,-119 6,-178 149,-1 299,5 448,-2 56,-9 108,-54 115,-112 22,-73 -35,-159 -109,-171 -152,-12 -305,-3 -458,-5 2,-56 -1,-112 6,-167 10,-53 55,-102 110,-108 115,-10 230,0 344,-9 99,-15 148,-151 81,-225 -36,-64 -116,-62 -179,-62 -116,2 -236,-14 -349,21 -171,52 -300,221 -299,400 -6,183 -2,367 -2,550 -12,76 38,162 117,174 z" /><path
         id="path46"
         style="fill:#38cdff;fill-opacity:1;fill-rule:nonzero;stroke:none"
         d="m 2594,1286 c 102,27 202,-87 166,-186 -22,-100 -164,-135 -233,-63 -91,67 -45,235 67,249" /><path
         id="path48"
         style="fill:none;stroke:#38cdff;stroke-width:0.9375;stroke-linecap:butt;stroke-linejoin:miter;stroke-miterlimit:10;stroke-dasharray:none;stroke-opacity:1"
         d="m 2594,1286 c 102,27 202,-87 166,-186 -22,-100 -164,-135 -233,-63 -91,67 -45,235 67,249 z" /><path
         id="path50"
         style="fill:#38cdff;fill-opacity:1;fill-rule:nonzero;stroke:none"
         d="m 2902,1248 c 65,70 197,43 230,-46 15,-106 7,-214 9,-321 101,-1 202,4 303,-8 68,-16 125,-86 111,-159 -2,-71 -73,-132 -145,-122 -86,-5 -172,-3 -258,-4 10,-48 12,-117 65,-141 93,-37 206,8 293,-47 33,-40 57,-91 44,-143 -14,-75 -91,-122 -164,-116 -174,-21 -387,31 -461,209 -88,217 -79,460 -80,690 6,69 -10,160 53,208" /><path
         id="path52"
         style="fill:none;stroke:#38cdff;stroke-width:0.9375;stroke-linecap:butt;stroke-linejoin:miter;stroke-miterlimit:10;stroke-dasharray:none;stroke-opacity:1"
         d="m 2902,1248 c 65,70 197,43 230,-46 15,-106 7,-214 9,-321 101,-1 202,4 303,-8 68,-16 125,-86 111,-159 -2,-71 -73,-132 -145,-122 -86,-5 -172,-3 -258,-4 10,-48 12,-117 65,-141 93,-37 206,8 293,-47 33,-40 57,-91 44,-143 -14,-75 -91,-122 -164,-116 -174,-21 -387,31 -461,209 -88,217 -79,460 -80,690 6,69 -10,160 53,208 z" /><path
         id="path54"
         style="fill:#38cdff;fill-opacity:1;fill-rule:nonzero;stroke:none"
         d="m 3652,1248 c 47,35 117,56 171,25 32,-20 65,-48 71,-87 11,-102 6,-204 7,-305 101,-1 202,4 303,-8 66,-14 119,-80 112,-150 -8,-58 -43,-121 -108,-129 -98,-8 -196,-4 -294,-4 7,-46 3,-109 49,-137 103,-54 248,21 328,-82 58,-80 12,-198 -79,-223 -165,-28 -363,-11 -479,125 -84,110 -98,253 -115,385 -9,144 -23,288 -11,432 -2,56 12,113 45,158" /><path
         id="path56"
         style="fill:none;stroke:#38cdff;stroke-width:0.9375;stroke-linecap:butt;stroke-linejoin:miter;stroke-miterlimit:10;stroke-dasharray:none;stroke-opacity:1"
         d="m 3652,1248 c 47,35 117,56 171,25 32,-20 65,-48 71,-87 11,-102 6,-204 7,-305 101,-1 202,4 303,-8 66,-14 119,-80 112,-150 -8,-58 -43,-121 -108,-129 -98,-8 -196,-4 -294,-4 7,-46 3,-109 49,-137 103,-54 248,21 328,-82 58,-80 12,-198 -79,-223 -165,-28 -363,-11 -479,125 -84,110 -98,253 -115,385 -9,144 -23,288 -11,432 -2,56 12,113 45,158 z" /><path
         id="path58"
         style="fill:#38cdff;fill-opacity:1;fill-rule:nonzero;stroke:none"
         d="m 1163,942 c 64,23 132,-24 160,-79 14,-107 2,-215 8,-323 6,-74 78,-142 155,-125 51,4 92,48 100,97 8,102 1,205 5,308 7,60 56,113 115,125 44,12 87,-14 122,-37 82,-119 20,-274 46,-406 15,-44 51,-84 100,-87 72,-15 160,46 144,125 10,107 -14,219 19,323 26,62 107,106 171,74 43,-18 81,-55 86,-103 11,-107 10,-215 4,-323 -15,-199 -197,-373 -398,-370 -100,-6 -192,41 -270,97 -65,-39 -129,-84 -206,-92 -192,-34 -395,95 -446,283 -27,118 -20,241 -17,361 -5,64 32,143 102,152" /><path
         id="path60"
         style="fill:none;stroke:#38cdff;stroke-width:0.9375;stroke-linecap:butt;stroke-linejoin:miter;stroke-miterlimit:10;stroke-dasharray:none;stroke-opacity:1"
         d="m 1163,942 c 64,23 132,-24 160,-79 14,-107 2,-215 8,-323 6,-74 78,-142 155,-125 51,4 92,48 100,97 8,102 1,205 5,308 7,60 56,113 115,125 44,12 87,-14 122,-37 82,-119 20,-274 46,-406 15,-44 51,-84 100,-87 72,-15 160,46 144,125 10,107 -14,219 19,323 26,62 107,106 171,74 43,-18 81,-55 86,-103 11,-107 10,-215 4,-323 -15,-199 -197,-373 -398,-370 -100,-6 -192,41 -270,97 -65,-39 -129,-84 -206,-92 -192,-34 -395,95 -446,283 -27,118 -20,241 -17,361 -5,64 32,143 102,152 z" /><path
         id="path62"
         style="fill:#38cdff;fill-opacity:1;fill-rule:nonzero;stroke:none"
         d="m 4600,909 c 167,54 367,41 507,-72 89,-72 141,-190 120,-304 -15,-49 -71,-68 -118,-70 -152,-9 -305,0 -457,-6 43,-89 157,-96 243,-81 75,14 139,72 218,58 57,-5 94,-76 69,-125 -36,-85 -126,-131 -212,-148 -151,-39 -325,-33 -449,70 -148,100 -199,308 -133,470 37,96 115,175 212,208" /><path
         id="path64"
         style="fill:none;stroke:#38cdff;stroke-width:0.9375;stroke-linecap:butt;stroke-linejoin:miter;stroke-miterlimit:10;stroke-dasharray:none;stroke-opacity:1"
         d="m 4600,909 c 167,54 367,41 507,-72 89,-72 141,-190 120,-304 -15,-49 -71,-68 -118,-70 -152,-9 -305,0 -457,-6 43,-89 157,-96 243,-81 75,14 139,72 218,58 57,-5 94,-76 69,-125 -36,-85 -126,-131 -212,-148 -151,-39 -325,-33 -449,70 -148,100 -199,308 -133,470 37,96 115,175 212,208 z" /><path
         id="path66"
         style="fill:#38cdff;fill-opacity:1;fill-rule:nonzero;stroke:none"
         d="m 5624,934 c 85,9 171,10 256,6 85,-3 157,-101 122,-181 -21,-37 -50,-79 -96,-83 -82,-7 -164,-4 -246,-9 -53,-4 -98,-46 -106,-99 -8,-99 -1,-199 -5,-299 -4,-83 -100,-156 -180,-121 -37,21 -79,51 -84,96 -10,115 -10,230 -1,345 14,174 166,329 340,345" /><path
         id="path68"
         style="fill:none;stroke:#38cdff;stroke-width:0.9375;stroke-linecap:butt;stroke-linejoin:miter;stroke-miterlimit:10;stroke-dasharray:none;stroke-opacity:1"
         d="m 5624,934 c 85,9 171,10 256,6 85,-3 157,-101 122,-181 -21,-37 -50,-79 -96,-83 -82,-7 -164,-4 -246,-9 -53,-4 -98,-46 -106,-99 -8,-99 -1,-199 -5,-299 -4,-83 -100,-156 -180,-121 -37,21 -79,51 -84,96 -10,115 -10,230 -1,345 14,174 166,329 340,345 z" /><path
         id="path70"
         style="fill:#38cdff;fill-opacity:1;fill-rule:nonzero;stroke:none"
         d="m 2604,895 c 74,14 151,-46 160,-119 12,-165 9,-331 4,-496 -4,-65 -56,-126 -122,-135 -85,-22 -176,58 -164,145 -4,166 -7,332 2,498 7,60 64,100 120,107" /><path
         id="path72"
         style="fill:none;stroke:#38cdff;stroke-width:0.9375;stroke-linecap:butt;stroke-linejoin:miter;stroke-miterlimit:10;stroke-dasharray:none;stroke-opacity:1"
         d="m 2604,895 c 74,14 151,-46 160,-119 12,-165 9,-331 4,-496 -4,-65 -56,-126 -122,-135 -85,-22 -176,58 -164,145 -4,166 -7,332 2,498 7,60 64,100 120,107 z" /><path
         id="path74"
         style="fill:#fdfeff;fill-opacity:1;fill-rule:nonzero;stroke:none"
         d="m 4655,651 c 54,110 239,112 295,3 -98,-4 -197,-5 -295,-3" /><path
         id="path76"
         style="fill:none;stroke:#fdfeff;stroke-width:0.9375;stroke-linecap:butt;stroke-linejoin:miter;stroke-miterlimit:10;stroke-dasharray:none;stroke-opacity:1"
         d="m 4655,651 c 54,110 239,112 295,3 -98,-4 -197,-5 -295,-3 z" /><path
         id="path78"
         style="fill:#fdfeff;fill-opacity:1;fill-rule:nonzero;stroke:none"
         d="M 2884,154 C 2976,78 3084,16 3204,0 h -527 c 85,26 151,87 207,154" /><path
         id="path80"
         style="fill:none;stroke:#fdfeff;stroke-width:0.9375;stroke-linecap:butt;stroke-linejoin:miter;stroke-miterlimit:10;stroke-dasharray:none;stroke-opacity:1"
         d="M 2884,154 C 2976,78 3084,16 3204,0 h -527 c 85,26 151,87 207,154 z" /><path
         id="path82"
         style="fill:#fdfeff;fill-opacity:1;fill-rule:nonzero;stroke:none"
         d="m 2075,0 c 108,21 205,73 293,138 57,-61 123,-118 206,-138 h -499" /><path
         id="path84"
         style="fill:none;stroke:#fdfeff;stroke-width:0.9375;stroke-linecap:butt;stroke-linejoin:miter;stroke-miterlimit:10;stroke-dasharray:none;stroke-opacity:1"
         d="m 2075,0 c 108,21 205,73 293,138 57,-61 123,-118 206,-138 z" /><path
         id="path86"
         style="fill:#fdfeff;fill-opacity:1;fill-rule:nonzero;stroke:none"
         d="M 3666,127 C 3759,70 3855,14 3964,0 h -497 c 75,27 138,78 199,127" /><path
         id="path88"
         style="fill:none;stroke:#fdfeff;stroke-width:0.9375;stroke-linecap:butt;stroke-linejoin:miter;stroke-miterlimit:10;stroke-dasharray:none;stroke-opacity:1"
         d="M 3666,127 C 3759,70 3855,14 3964,0 h -497 c 75,27 138,78 199,127 z" /><path
         id="path90"
         style="fill:#fdfeff;fill-opacity:1;fill-rule:nonzero;stroke:none"
         d="m 916,0 c 78,17 137,75 196,125 C 1193,66 1284,17 1384,0 H 916" /><path
         id="path92"
         style="fill:none;stroke:#fdfeff;stroke-width:0.9375;stroke-linecap:butt;stroke-linejoin:miter;stroke-miterlimit:10;stroke-dasharray:none;stroke-opacity:1"
         d="m 916,0 c 78,17 137,75 196,125 81,-59 172,-108 272,-125 z" /><path
         id="path94"
         style="fill:#fdfeff;fill-opacity:1;fill-rule:nonzero;stroke:none"
         d="M 4417,119 C 4507,68 4601,18 4704,0 h -477 c 71,24 134,69 190,119" /><path
         id="path96"
         style="fill:none;stroke:#fdfeff;stroke-width:0.9375;stroke-linecap:butt;stroke-linejoin:miter;stroke-miterlimit:10;stroke-dasharray:none;stroke-opacity:1"
         d="M 4417,119 C 4507,68 4601,18 4704,0 h -477 c 71,24 134,69 190,119 z" /><path
         id="path98"
         style="fill:#fdfeff;fill-opacity:1;fill-rule:nonzero;stroke:none"
         d="m 5184,95 c 59,-34 115,-74 180,-95 h -458 c 98,16 192,46 278,95" /><path
         id="path100"
         style="fill:none;stroke:#fdfeff;stroke-width:0.9375;stroke-linecap:butt;stroke-linejoin:miter;stroke-miterlimit:10;stroke-dasharray:none;stroke-opacity:1"
         d="m 5184,95 c 59,-34 115,-74 180,-95 h -458 c 98,16 192,46 278,95 z" /><path
         id="path102"
         style="fill:#fdfeff;fill-opacity:1;fill-rule:nonzero;stroke:none"
         d="m 1534,0 c 66,17 128,47 196,59 66,-11 128,-44 194,-59 h -390" /><path
         id="path104"
         style="fill:none;stroke:#fdfeff;stroke-width:0.9375;stroke-linecap:butt;stroke-linejoin:miter;stroke-miterlimit:10;stroke-dasharray:none;stroke-opacity:1"
         d="m 1534,0 c 66,17 128,47 196,59 66,-11 128,-44 194,-59 z" /></g></g></svg>